<svg xmlns="http://www.w3.org/2000/svg" aria-hidden="true">

  <!--
  ╔════════════════════════════════════════════════════════════════════╗
  ║  TAILWIND COLOR WHEEL  ·  Icon Sprite Sheet                       ║
  ║  ─────────────────────────────────────────────────────────────    ║
  ║  Design system: monoline, currentColor, 24 × 24 grid              ║
  ║  Stroke: 1.5 · round caps · round joins                           ║
  ║  Use: <svg><use href="icons.svg#symbol-id"/></svg>                ║
  ╚════════════════════════════════════════════════════════════════════╝
  -->


  <!-- ───────────────────────────────────────────────────────────────
       COLOR WHEEL ICON  —  mini prism-wheel, 6 segments + center dot
       Use for "brand mark" contexts, mode selectors, about page, etc.
  ──────────────────────────────────────────────────────────────────── -->
  <symbol id="color-wheel-icon" viewBox="0 0 24 24">
    <!--
      6 donut segments (60° each). Outer r=10, inner r=3.8, cx=cy=12.
      Each segment uses a unique color hinting at the full spectrum.
      Stroke = white hairline to create crisp separation at any size.
    -->
    <!-- Segment 0 · Red   –90°→–30° -->
    <path d="M12,8.2 L12,2 A10,10,0,0,1,20.66,7 L15.3,9.9 A3.8,3.8,0,0,0,12,8.2Z"
          fill="#f87171" stroke="white" stroke-width="0.4"/>
    <!-- Segment 1 · Yellow   –30°→30° -->
    <path d="M15.3,9.9 L20.66,7 A10,10,0,0,1,20.66,17 L15.3,14.1 A3.8,3.8,0,0,0,15.3,9.9Z"
          fill="#facc15" stroke="white" stroke-width="0.4"/>
    <!-- Segment 2 · Green   30°→90° -->
    <path d="M15.3,14.1 L20.66,17 A10,10,0,0,1,12,22 L12,15.8 A3.8,3.8,0,0,0,15.3,14.1Z"
          fill="#4ade80" stroke="white" stroke-width="0.4"/>
    <!-- Segment 3 · Cyan   90°→150° -->
    <path d="M12,15.8 L12,22 A10,10,0,0,1,3.34,17 L8.7,14.1 A3.8,3.8,0,0,0,12,15.8Z"
          fill="#22d3ee" stroke="white" stroke-width="0.4"/>
    <!-- Segment 4 · Blue   150°→210° -->
    <path d="M8.7,14.1 L3.34,17 A10,10,0,0,1,3.34,7 L8.7,9.9 A3.8,3.8,0,0,0,8.7,14.1Z"
          fill="#60a5fa" stroke="white" stroke-width="0.4"/>
    <!-- Segment 5 · Violet   210°→270° -->
    <path d="M8.7,9.9 L3.34,7 A10,10,0,0,1,12,2 L12,8.2 A3.8,3.8,0,0,0,8.7,9.9Z"
          fill="#c084fc" stroke="white" stroke-width="0.4"/>
    <!-- Hub -->
    <circle cx="12" cy="12" r="3" fill="currentColor" opacity="0.15"/>
    <circle cx="12" cy="12" r="1.5" fill="currentColor"/>
  </symbol>


  <!-- ───────────────────────────────────────────────────────────────
       GITHUB ICON  —  GitHub Octocat silhouette, filled monochrome
  ──────────────────────────────────────────────────────────────────── -->
  <symbol id="github-icon" viewBox="0 0 24 24">
    <path fill="currentColor" fill-rule="evenodd" clip-rule="evenodd"
      d="M12 2C6.477 2 2 6.484 2 12.017a10 10 0 0 0 6.839 9.504c.5.092.682-.217.682-.483
         0-.237-.008-1.027-.013-1.86-2.782.605-3.369-1.343-3.369-1.343-.454-1.158-1.11-1.466-1.11-1.466
         -.908-.62.069-.608.069-.608 1.003.07 1.531 1.032 1.531 1.032.892 1.53 2.341 1.088 2.91.832
         .092-.647.35-1.088.636-1.338-2.22-.253-4.555-1.113-4.555-4.951
         0-1.093.39-1.988 1.029-2.688-.103-.253-.446-1.272.098-2.65
         0 0 .84-.27 2.75 1.026A9.6 9.6 0 0 1 12 6.844a9.6 9.6 0 0 1 2.504.338
         c1.909-1.296 2.747-1.027 2.747-1.027.546 1.379.202 2.398.1 2.651
         .64.7 1.028 1.595 1.028 2.688 0 3.848-2.339 4.695-4.566 4.943
         .359.309.678.92.678 1.855 0 1.338-.012 2.419-.012 2.747
         0 .268.18.58.688.482A10.02 10.02 0 0 0 22 12.017C22 6.484 17.522 2 12 2Z"/>
  </symbol>


  <!-- ───────────────────────────────────────────────────────────────
       X (TWITTER) ICON  —  The X logotype
  ──────────────────────────────────────────────────────────────────── -->
  <symbol id="x-icon" viewBox="0 0 24 24">
    <path fill="currentColor"
      d="M18.244 2.25h3.308l-7.227 8.26 8.502 11.24H16.17l-4.714-6.231-5.401 6.231H2.747
         l7.73-8.835L2.25 2.25h6.163l4.259 5.632 4.572-5.632Zm-1.161 17.52h1.833L7.084 4.126H5.117
         L17.083 19.77Z"/>
  </symbol>


  <!-- ───────────────────────────────────────────────────────────────
       BLUESKY ICON  —  Butterfly / cloud logotype
  ──────────────────────────────────────────────────────────────────── -->
  <symbol id="bluesky-icon" viewBox="0 0 24 24">
    <path fill="currentColor"
      d="M12 10.8c-1.087-2.114-4.046-6.053-6.798-7.995C2.566.944 1.561 1.266 1.01 1.5
         .744 1.61.5 2.463.5 3.18c0 .716.42 5.804.687 6.63.893 2.8 3.794 3.72 6.478 3.394
         -3.874.548-7.22 2.069-2.975 7.154 5.072 5.324 6.987-1.148 7.31-4.404
         .323 3.256 1.787 9.486 7.29 4.404 4.057-4.924 1.044-6.607-2.83-7.154
         2.684.325 5.586-.595 6.48-3.393.267-.827.686-5.914.686-6.63 0-.717-.245-1.57-.51-1.68
         -.552-.235-1.557-.557-4.192 1.305C16.062 4.748 13.1 8.686 12 10.8Z"/>
  </symbol>


  <!-- ───────────────────────────────────────────────────────────────
       DISCORD ICON  —  Discord "clyde" controller silhouette
  ──────────────────────────────────────────────────────────────────── -->
  <symbol id="discord-icon" viewBox="0 0 24 24">
    <path fill="currentColor"
      d="M20.317 4.37a19.8 19.8 0 0 0-4.885-1.515.074.074 0 0 0-.079.037
         c-.21.375-.444.864-.608 1.25a18.3 18.3 0 0 0-5.487 0 12.6 12.6 0 0 0-.617-1.25
         .077.077 0 0 0-.079-.037A19.7 19.7 0 0 0 3.677 4.37a.07.07 0 0 0-.032.027
         C.533 9.046-.32 13.58.099 18.057c.002.022.015.043.031.056a19.9 19.9 0 0 0 5.993 3.03
         .078.078 0 0 0 .084-.026c.462-.63.874-1.295 1.226-1.994a.076.076 0 0 0-.041-.106
         18.3 18.3 0 0 1-2.426-.921.077.077 0 0 1-.008-.128 10.2 10.2 0 0 0 .372-.292
         .074.074 0 0 1 .077-.01c5.124 2.34 10.67 2.34 15.733 0a.074.074 0 0 1 .078.01
         c.12.098.246.198.373.292a.077.077 0 0 1-.006.127c-.777.36-1.587.664-2.427.922
         a.077.077 0 0 0-.041.107c.36.698.772 1.362 1.225 1.993a.076.076 0 0 0 .084.028
         A19.8 19.8 0 0 0 23.92 18.1a.076.076 0 0 0 .031-.055c.5-5.177-.838-9.674-3.549-13.66
         a.061.061 0 0 0-.031-.029ZM8.02 15.33c-1.183 0-2.157-1.085-2.157-2.419
         0-1.333.956-2.419 2.157-2.419 1.21 0 2.176 1.096 2.157 2.42
         0 1.333-.956 2.418-2.157 2.418Zm7.975 0c-1.183 0-2.157-1.085-2.157-2.419
         0-1.333.955-2.419 2.157-2.419 1.21 0 2.176 1.096 2.157 2.42
         0 1.333-.946 2.418-2.157 2.418Z"/>
  </symbol>


  <!-- ───────────────────────────────────────────────────────────────
       DOCUMENTATION ICON  —  open book with a </> code motif
  ──────────────────────────────────────────────────────────────────── -->
  <symbol id="documentation-icon" viewBox="0 0 24 24">
    <!-- Book spine + pages -->
    <path stroke="currentColor" fill="none"
          stroke-width="1.5" stroke-linecap="round" stroke-linejoin="round"
          d="M4 19.5A2.5 2.5 0 0 1 6.5 17H20"/>
    <path stroke="currentColor" fill="none"
          stroke-width="1.5" stroke-linecap="round" stroke-linejoin="round"
          d="M6.5 2H20v20H6.5A2.5 2.5 0 0 1 4 19.5v-15A2.5 2.5 0 0 1 6.5 2Z"/>
    <!-- </> code symbol inside the book -->
    <path stroke="currentColor" fill="none"
          stroke-width="1.4" stroke-linecap="round" stroke-linejoin="round"
          d="M9.5 9.5 7.5 12l2 2.5M14.5 9.5 16.5 12l-2 2.5"/>
    <line x1="12.5" y1="8.5" x2="11.5" y2="15.5"
          stroke="currentColor" stroke-width="1.4" stroke-linecap="round"/>
  </symbol>


  <!-- ───────────────────────────────────────────────────────────────
       SOCIAL / USER ICON  —  person with a radiating connections star
  ──────────────────────────────────────────────────────────────────── -->
  <symbol id="social-icon" viewBox="0 0 24 24">
    <!-- User avatar head + shoulders -->
    <circle cx="9" cy="7" r="3.5"
            fill="none" stroke="currentColor"
            stroke-width="1.5" stroke-linecap="round"/>
    <path fill="none" stroke="currentColor"
          stroke-width="1.5" stroke-linecap="round" stroke-linejoin="round"
          d="M2.5 21a6.5 6.5 0 0 1 13 0"/>
    <!-- Connection star  (top-right quadrant) -->
    <!-- Central node -->
    <circle cx="18.5" cy="9" r="1.2" fill="currentColor"/>
    <!-- Radiating spokes to 4 satellite nodes -->
    <line x1="18.5" y1="9" x2="21" y2="6.5"
          stroke="currentColor" stroke-width="1.3" stroke-linecap="round"/>
    <line x1="18.5" y1="9" x2="21" y2="11.5"
          stroke="currentColor" stroke-width="1.3" stroke-linecap="round"/>
    <line x1="18.5" y1="9" x2="15.5" y2="6.5"
          stroke="currentColor" stroke-width="1.3" stroke-linecap="round"/>
    <line x1="18.5" y1="9" x2="15.5" y2="11.5"
          stroke="currentColor" stroke-width="1.3" stroke-linecap="round"/>
    <!-- Satellite dots -->
    <circle cx="21"   cy="6.5"  r="1" fill="currentColor"/>
    <circle cx="21"   cy="11.5" r="1" fill="currentColor"/>
    <circle cx="15.5" cy="6.5"  r="1" fill="currentColor"/>
    <circle cx="15.5" cy="11.5" r="1" fill="currentColor"/>
  </symbol>

</svg>
